PathFileType  4	(X/Y/Z) C:\Users\antoi\Documents\MyRepositories\mobilecap\ResultsAnalysis
DataRate	CameraRate	NumFrames	NumMarkers	Units	OrigDataRate	OrigDataStartFrame	OrigNumFrames
100.0	100.0	4	51	mm	100.0	116	132
Frame#	Time	r_knee			r_shank_antsup			r_ankle			r_calc			r_5meta			r_toe			L_knee			L_shank_antsup			L_ankle			L_calc			L_5meta			L_toe			r_sh2			r_sh3			r_sh4			L_sh2			L_sh3			r_thigh1			r_thigh2			r_thigh3			r_thigh4			r_thigh5			L_thigh1			L_thigh2			L_thigh3			L_thigh4			r.ASIS			r.PSIS			L.ASIS			L.PSIS			C7			R_Shoulder			L_Shoulder			R_Sternum			L_Sternum			R_humerus			R_elbow_med			R_elbow_lat			R_forearm			R_wrist_radius			R_wrist_ulna			L_humerus			L_elbow_med			L_elbow_lat			L_forearm			L_wrist_radius			L_wrist_ulna			R_HJC			L_HJC			R_HJC_reg			L_HJC_reg			
		X1	Y1	Z1	X2	Y2	Z2	X3	Y3	Z3	X4	Y4	Z4	X5	Y5	Z5	X6	Y6	Z6	X7	Y7	Z7	X8	Y8	Z8	X9	Y9	Z9	X10	Y10	Z10	X11	Y11	Z11	X12	Y12	Z12	X13	Y13	Z13	X14	Y14	Z14	X15	Y15	Z15	X16	Y16	Z16	X17	Y17	Z17	X18	Y18	Z18	X19	Y19	Z19	X20	Y20	Z20	X21	Y21	Z21	X22	Y22	Z22	X23	Y23	Z23	X24	Y24	Z24	X25	Y25	Z25	X26	Y26	Z26	X27	Y27	Z27	X28	Y28	Z28	X29	Y29	Z29	X30	Y30	Z30	X31	Y31	Z31	X32	Y32	Z32	X33	Y33	Z33	X34	Y34	Z34	X35	Y35	Z35	X36	Y36	Z36	X37	Y37	Z37	X38	Y38	Z38	X39	Y39	Z39	X40	Y40	Z40	X41	Y41	Z41	X42	Y42	Z42	X43	Y43	Z43	X44	Y44	Z44	X45	Y45	Z45	X46	Y46	Z46	X47	Y47	Z47	X48	Y48	Z48	X49	Y49	Z49	X50	Y50	Z50	X51	Y51	Z51	

116	1.15000000	1416.90228	488.82016	-56.25472	1470.23906	431.48681	-70.50882	1473.39544	90.53394	-104.86170	1420.33676	63.55526	-160.10269	1575.34033	42.81695	-60.54819	1631.71497	80.13695	-102.18881	1149.49859	480.83402	-340.49636	1123.56970	382.41340	-351.99319	896.82514	168.76281	-321.87435	822.08930	166.26007	-269.88380	941.45922	52.46490	-367.23231	998.79606	55.05007	-319.56264	1468.94790	315.09806	-57.74820	1388.09132	424.76010	-53.59194	1393.54609	312.16906	-62.40352	1057.78127	443.65584	-345.87133	984.86207	345.12126	-349.80079	1367.92444	807.65762	-18.34804	1402.73671	698.90660	-26.86497	1298.90481	660.62610	-15.29392	1261.01533	770.83106	-3.74694	1355.90985	660.60942	0.07894	1249.69465	731.02563	-387.48742	1225.23002	597.17846	-364.32000	1146.69907	753.34931	-339.17966	1126.81078	615.21007	-323.11112	1353.20138	947.66761	-70.04007	1163.56073	986.48844	-141.35169	1355.15987	915.89566	-317.70993	1155.86526	987.32941	-242.53773	1145.90003	1379.26714	-226.83616	1223.74100	1357.78804	-35.11972	1254.45506	1359.03549	-391.62914	1285.26041	1367.32152	-186.49226	1294.24179	1368.54828	-227.85070	1206.37261	1223.16570	27.79848	1139.95344	1019.28789	-32.26140	1134.91796	1039.98481	38.03505	1154.91367	912.89946	89.05521	1137.50686	778.29769	117.13742	1105.33794	785.26882	126.94529	1313.11879	1257.14998	-447.29183	1371.38947	1023.81459	-398.60963	1383.14622	1057.71103	-472.35171	1496.74529	1047.71187	-454.86283	1643.19365	991.70562	-445.17299	1632.25788	968.01944	-470.00683	1273.54204	869.17707	-82.27643	1267.97012	851.55221	-287.91732	1286.52616	858.87991	-99.37038	1274.03179	860.24901	-263.69670	
117	1.16000000	1428.50758	489.24090	-54.65510	1480.69297	430.55874	-69.63989	1475.55582	90.50734	-105.45641	1421.51363	64.09367	-160.64400	1576.04429	41.81129	-60.56742	1633.45111	77.10949	-102.85658	1170.19305	479.58557	-340.91012	1141.62335	381.94379	-352.74704	908.02398	176.42584	-323.08647	834.64783	179.19676	-270.59101	944.57504	56.12486	-367.12745	1002.40208	55.30363	-320.08129	1477.12414	314.16616	-57.28535	1398.58373	425.42682	-52.06132	1401.46050	312.96652	-61.23429	1078.01912	445.32774	-345.90201	1001.80635	349.46521	-350.15072	1381.25394	808.60756	-15.57906	1415.51404	699.69669	-24.48185	1311.02954	661.64295	-13.04493	1274.26465	772.33979	-1.23469	1368.46060	661.61895	2.37194	1266.03415	731.42115	-385.05713	1244.07863	596.80979	-363.49964	1162.78407	751.40430	-336.39900	1145.61775	612.66691	-321.53822	1367.17015	949.35145	-67.92457	1177.22071	987.53466	-138.83697	1368.62067	916.87016	-315.15788	1169.24188	987.73459	-239.98650	1158.68010	1379.87709	-223.81698	1237.97985	1358.51622	-32.67084	1266.00319	1359.87948	-389.33130	1298.28710	1368.30884	-184.43066	1306.86989	1369.57595	-225.74880	1221.62417	1223.73057	30.23027	1155.75562	1019.62792	-29.48346	1151.12262	1040.16523	40.82052	1172.43399	913.09691	91.47887	1156.51986	778.66027	119.49796	1124.09281	785.22997	129.58679	1323.67257	1257.38938	-445.19144	1379.26413	1023.44817	-395.93503	1391.11199	1056.83853	-469.96631	1504.70592	1046.11837	-452.06368	1650.61658	989.14139	-441.49629	1639.78862	965.63023	-466.49199	1287.69572	870.64491	-79.56259	1281.71356	852.27979	-285.13105	1300.59340	860.83176	-96.50768	1287.65326	861.15726	-260.57635	
118	1.17000000	1439.47910	489.62969	-53.23856	1490.57008	429.68208	-68.95454	1477.34431	90.73518	-106.08169	1422.25694	64.47266	-161.03543	1576.51869	41.32860	-60.61788	1634.71621	74.86610	-103.63552	1192.05081	478.07911	-341.70532	1160.92845	381.45460	-353.78832	920.78824	184.28562	-324.44125	849.42599	192.83368	-271.31087	948.38140	60.61788	-366.99012	1006.47227	56.07308	-320.66981	1484.69118	313.33348	-57.00996	1408.53762	426.18394	-50.80253	1408.86518	313.85065	-60.36437	1099.59596	446.88771	-346.20353	1020.15496	353.79459	-350.65208	1394.33642	809.50039	-12.94589	1427.89380	700.39756	-22.17608	1322.91320	662.77060	-10.92388	1287.10952	773.88154	1.14040	1380.41209	662.60329	4.42145	1282.83242	731.77720	-382.76381	1263.80684	596.40726	-362.89566	1179.34204	749.07310	-333.81444	1165.24876	609.75003	-320.33056	1380.85069	950.90414	-65.57466	1190.64170	988.58447	-136.28890	1381.76004	917.98261	-312.50871	1182.40121	988.18221	-237.38120	1171.28785	1380.63799	-220.69544	1252.30078	1359.42075	-30.17898	1277.28517	1360.71359	-387.04500	1311.22983	1369.40087	-182.39840	1319.40194	1370.69878	-223.67485	1237.08911	1224.44114	32.72443	1171.73964	1020.12155	-26.59915	1167.62903	1040.44875	43.72303	1190.51377	913.41110	93.93933	1176.23152	779.05164	121.80475	1143.63576	785.18861	132.22583	1333.88663	1257.60731	-443.16202	1386.60125	1023.06078	-393.36511	1398.60798	1055.90320	-467.63688	1512.21053	1044.26860	-449.41334	1657.42659	986.00006	-437.95993	1646.68301	962.74055	-463.04311	1301.51188	872.02557	-76.82009	1295.20591	853.10477	-282.33067	1314.30590	862.76563	-93.48740	1300.94805	862.11248	-257.36237	
119	1.18000000	1449.69505	489.95041	-51.94549	1499.71482	428.80466	-68.26721	1478.77170	91.06923	-106.69281	1422.67541	64.74526	-161.29077	1576.81266	41.15778	-60.63762	1635.60193	73.25140	-104.37170	1214.89156	476.34578	-342.75682	1181.36990	380.98969	-355.01211	935.10023	192.28371	-325.88380	866.39827	206.88378	-272.00613	953.12041	66.01137	-366.81676	1011.19831	57.54349	-321.32619	1491.48648	312.54439	-56.77214	1417.75500	426.96774	-49.77188	1415.61617	314.74682	-59.76125	1122.36153	448.35347	-346.66274	1039.79551	358.08783	-351.18105	1407.20118	810.31377	-10.44679	1439.86435	700.96815	-19.88163	1334.55573	664.03145	-8.86458	1299.56073	775.49952	3.40859	1391.69387	663.55891	6.28893	1299.93170	732.05501	-380.70338	1284.20381	595.97413	-362.49079	1196.27657	746.38141	-331.40937	1185.50428	606.53338	-319.51558	1394.23393	952.35192	-63.02809	1203.81110	989.62630	-133.81524	1394.55491	919.17959	-309.81573	1195.32875	988.64362	-234.83511	1183.71208	1381.54974	-217.49347	1266.65788	1360.47274	-27.65764	1288.33177	1361.50867	-384.78233	1324.07188	1370.56043	-180.39734	1331.82348	1371.87090	-221.64220	1252.74964	1225.27321	35.27123	1187.90378	1020.72898	-23.62950	1184.42300	1040.80832	46.74670	1209.13038	913.82606	96.43260	1196.55242	779.41742	124.06470	1163.93770	785.13750	134.87283	1343.75247	1257.76402	-441.20507	1393.43802	1022.61968	-390.92024	1405.67290	1054.90439	-465.37962	1519.27942	1042.15157	-446.92356	1663.65035	982.29706	-434.58841	1652.95037	959.35108	-459.65351	1314.96543	873.33773	-74.09501	1308.44283	853.97920	-279.55843	1327.65728	864.66897	-90.33370	1313.90567	863.07293	-254.09542	
